<?xml version="1.0" encoding="utf-8"?>
<!-- Svg Vector Icons : http://www.onlinewebfonts.com/icon -->
<!DOCTYPE svg PUBLIC "-//W3C//DTD SVG 1.1//EN" "http://www.w3.org/Graphics/SVG/1.1/DTD/svg11.dtd">
<svg version="1.1" xmlns="http://www.w3.org/2000/svg" xmlns:xlink="http://www.w3.org/1999/xlink" x="0px" y="0px" viewBox="0 0 1000 1000" enable-background="new 0 0 1000 1000" xml:space="preserve">
<metadata> Svg Vector Icons : http://www.onlinewebfonts.com/icon </metadata>
<g><g><path d="M500,10C229.4,10,10,229.4,10,500c0,270.6,219.4,490,490,490c270.6,0,490-219.4,490-490C990,229.4,770.6,10,500,10z M500,913.4C271.7,913.4,86.6,728.3,86.6,500S271.7,86.6,500,86.6S913.4,271.7,913.4,500S728.3,913.4,500,913.4z"/><path d="M594.4,294.6c-12-12-31.3-12-43.3,0L367.3,478.3c-12,12-12,31.3,0,43.3l183.8,183.8c6,6,13.8,9,21.7,9s15.7-3,21.7-9c12-12,12-31.3,0-43.3L432.3,500l162.1-162.1C606.3,325.9,606.3,306.6,594.4,294.6z"/></g><g></g><g></g><g></g><g></g><g></g><g></g><g></g><g></g><g></g><g></g><g></g><g></g><g></g><g></g><g></g></g>
</svg>