<?xml version="1.0" encoding="utf-8"?>
<!-- Svg Vector Icons : http://www.onlinewebfonts.com/icon -->
<!DOCTYPE svg PUBLIC "-//W3C//DTD SVG 1.1//EN" "http://www.w3.org/Graphics/SVG/1.1/DTD/svg11.dtd">
<svg version="1.1" xmlns="http://www.w3.org/2000/svg" xmlns:xlink="http://www.w3.org/1999/xlink" x="0px" y="0px" viewBox="0 0 1000 1000" enable-background="new 0 0 1000 1000" xml:space="preserve">
<metadata> Svg Vector Icons : http://www.onlinewebfonts.com/icon </metadata>
<g><path d="M500,990C229.8,990,10,770.2,10,500S229.8,10,500,10s490,219.8,490,490S770.2,990,500,990z M500,71.3C263.6,71.3,71.3,263.6,71.3,500c0,236.4,192.3,428.8,428.8,428.8c236.4,0,428.8-192.4,428.8-428.8C928.8,263.6,736.4,71.3,500,71.3z"/><path d="M392.8,255l245,245L392.8,255z"/><path d="M637.8,530.6c-7.8,0-15.7-3-21.7-8.9l-245-245c-11.9-11.9-11.9-31.4,0-43.3c11.9-11.9,31.4-11.9,43.3,0l245,245c11.9,11.9,11.9,31.4,0,43.3C653.5,527.6,645.7,530.6,637.8,530.6z"/><path d="M392.8,775.6l245-260.3L392.8,775.6z"/><path d="M392.8,806.3c-7.5,0-15.1-2.8-21-8.3c-12.3-11.6-12.9-31-1.3-43.3l245-260.3c11.6-12.4,31.1-12.9,43.3-1.3c12.3,11.6,12.9,31,1.3,43.3l-245,260.3C409.1,803,401,806.3,392.8,806.3z"/></g>
</svg>